<svg width="64" height="64" viewBox="0 0 64 64" fill="none" xmlns="http://www.w3.org/2000/svg">
<path d="M25.6 0C22.048 0 19.2 2.848 19.2 6.4V16C19.2 19.552 22.048 22.4 25.6 22.4H28.8V28.8H0V35.2H12.8V41.6H9.6C6.048 41.6 3.2 44.448 3.2 48V57.6C3.2 61.152 6.048 64 9.6 64H22.4C25.952 64 28.8 61.152 28.8 57.6V48C28.8 44.448 25.952 41.6 22.4 41.6H19.2V35.2H44.8V41.6H41.6C38.048 41.6 35.2 44.448 35.2 48V57.6C35.2 61.152 38.048 64 41.6 64H54.4C57.952 64 60.8 61.152 60.8 57.6V48C60.8 44.448 57.952 41.6 54.4 41.6H51.2V35.2H64V28.8H35.2V22.4H38.4C41.952 22.4 44.8 19.552 44.8 16V6.4C44.8 2.848 41.952 0 38.4 0H25.6ZM25.6 6.4H38.4V16H25.6V6.4ZM9.6 48H22.4V57.6H9.6V48ZM41.6 48H54.4V57.6H41.6V48Z" fill="#00A78E"/>
</svg>
