<svg width="260" height="56" viewBox="0 0 260 56" fill="none" xmlns="http://www.w3.org/2000/svg">
<circle cx="96" cy="28" r="28" fill="#4E4E4E"/>
<path d="M96 20.0938C94.4363 20.0938 92.9077 20.5574 91.6075 21.4262C90.3073 22.2949 89.294 23.5297 88.6956 24.9744C88.0972 26.4191 87.9406 28.0088 88.2457 29.5424C88.5507 31.0761 89.3037 32.4849 90.4094 33.5906C91.5151 34.6963 92.9239 35.4493 94.4576 35.7543C95.9912 36.0594 97.5809 35.9028 99.0256 35.3044C100.47 34.706 101.705 33.6927 102.574 32.3925C103.443 31.0923 103.906 29.5637 103.906 28C103.904 25.904 103.07 23.8946 101.588 22.4125C100.105 20.9303 98.096 20.0965 96 20.0938ZM96 33.8438C94.8442 33.8438 93.7144 33.501 92.7534 32.8589C91.7924 32.2168 91.0434 31.3041 90.6011 30.2363C90.1588 29.1685 90.0431 27.9935 90.2685 26.8599C90.494 25.7264 91.0506 24.6851 91.8678 23.8678C92.6851 23.0506 93.7264 22.494 94.8599 22.2685C95.9935 22.0431 97.1685 22.1588 98.2363 22.6011C99.3041 23.0434 100.217 23.7924 100.859 24.7534C101.501 25.7144 101.844 26.8442 101.844 28C101.844 29.5499 101.228 31.0362 100.132 32.1322C99.0362 33.2281 97.5499 33.8438 96 33.8438ZM104.25 10.4688H87.75C85.2893 10.4715 82.9302 11.4502 81.1902 13.1902C79.4502 14.9302 78.4715 17.2893 78.4688 19.75V36.25C78.4715 38.7107 79.4502 41.0698 81.1902 42.8098C82.9302 44.5498 85.2893 45.5285 87.75 45.5312H104.25C106.711 45.5285 109.07 44.5498 110.81 42.8098C112.55 41.0698 113.529 38.7107 113.531 36.25V19.75C113.529 17.2893 112.55 14.9302 110.81 13.1902C109.07 11.4502 106.711 10.4715 104.25 10.4688ZM111.469 36.25C111.469 38.1645 110.708 40.0006 109.354 41.3544C108.001 42.7082 106.165 43.4688 104.25 43.4688H87.75C85.8355 43.4687 83.9994 42.7082 82.6456 41.3544C81.2918 40.0006 80.5312 38.1645 80.5312 36.25V19.75C80.5312 17.8355 81.2918 15.9994 82.6456 14.6456C83.9994 13.2918 85.8355 12.5313 87.75 12.5312H104.25C106.165 12.5313 108.001 13.2918 109.354 14.6456C110.708 15.9994 111.469 17.8355 111.469 19.75V36.25ZM106.656 19.0625C106.656 19.4024 106.555 19.7347 106.367 20.0174C106.178 20.3 105.909 20.5203 105.595 20.6504C105.281 20.7805 104.936 20.8145 104.602 20.7482C104.269 20.6819 103.963 20.5182 103.722 20.2778C103.482 20.0375 103.318 19.7312 103.252 19.3978C103.185 19.0644 103.219 18.7188 103.35 18.4048C103.48 18.0907 103.7 17.8223 103.983 17.6334C104.265 17.4446 104.598 17.3438 104.938 17.3438C105.393 17.3438 105.831 17.5248 106.153 17.8472C106.475 18.1695 106.656 18.6067 106.656 19.0625Z" fill="#E9E9E9"/>
<circle cx="232" cy="28" r="28" fill="#4E4E4E"/>
<path d="M220.736 18.5398C220.527 18.4268 220.292 18.3702 220.054 18.3753C219.816 18.3805 219.583 18.4473 219.379 18.5693C219.175 18.6912 219.005 18.8641 218.888 19.071C218.77 19.2779 218.709 19.5118 218.708 19.7498V37.1664C218.708 37.5311 218.853 37.8808 219.111 38.1387C219.369 38.3966 219.719 38.5414 220.083 38.5414C220.448 38.5414 220.798 38.3966 221.056 38.1387C221.314 37.8808 221.458 37.5311 221.458 37.1664V22.0524L231.347 27.3764C231.754 27.5964 232.246 27.5964 232.653 27.3764L242.542 22.0524V37.1664C242.542 37.5311 242.687 37.8808 242.945 38.1387C243.202 38.3966 243.552 38.5414 243.917 38.5414C244.282 38.5414 244.631 38.3966 244.889 38.1387C245.147 37.8808 245.292 37.5311 245.292 37.1664V19.7498C245.292 19.5118 245.23 19.2779 245.112 19.071C244.995 18.8641 244.826 18.6912 244.621 18.5693C244.417 18.4473 244.185 18.3805 243.947 18.3753C243.709 18.3702 243.474 18.4268 243.264 18.5398L232 24.6044L220.736 18.5398Z" fill="#E9E9E9"/>
<path fill-rule="evenodd" clip-rule="evenodd" d="M241.735 12.8239C235.258 12.2449 228.742 12.2449 222.265 12.8239L219.482 13.0714C218.032 13.2009 216.668 13.8152 215.611 14.8151C214.553 15.8151 213.864 17.1423 213.654 18.5824C212.74 24.8278 212.74 31.1728 213.654 37.4181C213.864 38.8582 214.554 40.1852 215.612 41.1848C216.67 42.1844 218.034 42.7983 219.484 42.9273L222.263 43.1766C228.742 43.7559 235.258 43.7559 241.737 43.1766L244.518 42.9273C245.967 42.7979 247.331 42.1839 248.388 41.1843C249.446 40.1847 250.135 38.8579 250.346 37.4181C251.259 31.1728 251.259 24.8278 250.346 18.5824C250.136 17.142 249.446 15.8146 248.388 14.8146C247.33 13.8146 245.966 13.2005 244.516 13.0714L241.737 12.8239H241.735ZM222.51 15.5629C228.825 14.9983 235.178 14.9983 241.493 15.5629L244.274 15.8123C245.108 15.8863 245.892 16.2393 246.501 16.8141C247.109 17.3889 247.506 18.1521 247.627 18.9803C248.502 24.9618 248.502 31.0387 247.627 37.0203C247.506 37.8485 247.109 38.6116 246.501 39.1865C245.892 39.7613 245.108 40.1142 244.274 40.1883L241.493 40.4376C235.179 41.0023 228.824 41.0023 222.51 40.4376L219.729 40.1883C218.896 40.1142 218.111 39.7613 217.503 39.1865C216.894 38.6116 216.497 37.8485 216.376 37.0203C215.502 31.0387 215.502 24.9618 216.376 18.9803C216.497 18.1521 216.894 17.3889 217.503 16.8141C218.111 16.2393 218.896 15.8863 219.729 15.8123L222.51 15.5629Z" fill="#E9E9E9"/>
<circle cx="164" cy="28" r="28" fill="#4E4E4E"/>
<path d="M179.125 10.125H148.875C148.146 10.125 147.446 10.4147 146.93 10.9305C146.415 11.4462 146.125 12.1457 146.125 12.875V43.125C146.125 43.8543 146.415 44.5538 146.93 45.0695C147.446 45.5853 148.146 45.875 148.875 45.875H179.125C179.854 45.875 180.554 45.5853 181.07 45.0695C181.585 44.5538 181.875 43.8543 181.875 43.125V12.875C181.875 12.1457 181.585 11.4462 181.07 10.9305C180.554 10.4147 179.854 10.125 179.125 10.125ZM179.125 43.125H148.875V12.875H179.125V43.125ZM158.5 25.25V36.25C158.5 36.6147 158.355 36.9644 158.097 37.2223C157.839 37.4801 157.49 37.625 157.125 37.625C156.76 37.625 156.411 37.4801 156.153 37.2223C155.895 36.9644 155.75 36.6147 155.75 36.25V25.25C155.75 24.8853 155.895 24.5356 156.153 24.2777C156.411 24.0199 156.76 23.875 157.125 23.875C157.49 23.875 157.839 24.0199 158.097 24.2777C158.355 24.5356 158.5 24.8853 158.5 25.25ZM173.625 30.0625V36.25C173.625 36.6147 173.48 36.9644 173.222 37.2223C172.964 37.4801 172.615 37.625 172.25 37.625C171.885 37.625 171.536 37.4801 171.278 37.2223C171.02 36.9644 170.875 36.6147 170.875 36.25V30.0625C170.875 29.1508 170.513 28.2765 169.868 27.6318C169.224 26.9872 168.349 26.625 167.438 26.625C166.526 26.625 165.651 26.9872 165.007 27.6318C164.362 28.2765 164 29.1508 164 30.0625V36.25C164 36.6147 163.855 36.9644 163.597 37.2223C163.339 37.4801 162.99 37.625 162.625 37.625C162.26 37.625 161.911 37.4801 161.653 37.2223C161.395 36.9644 161.25 36.6147 161.25 36.25V25.25C161.252 24.9132 161.377 24.5887 161.602 24.3382C161.827 24.0876 162.136 23.9283 162.471 23.8906C162.806 23.8529 163.143 23.9393 163.418 24.1335C163.693 24.3277 163.887 24.6161 163.964 24.9441C164.894 24.3131 165.979 23.9474 167.101 23.8862C168.223 23.8251 169.341 24.0708 170.334 24.597C171.327 25.1232 172.159 25.91 172.738 26.8729C173.318 27.8358 173.625 28.9385 173.625 30.0625ZM159.188 20.4375C159.188 20.8454 159.067 21.2442 158.84 21.5834C158.613 21.9225 158.291 22.1869 157.914 22.343C157.537 22.4991 157.123 22.54 156.723 22.4604C156.323 22.3808 155.955 22.1844 155.667 21.8959C155.378 21.6075 155.182 21.24 155.102 20.8399C155.023 20.4398 155.063 20.0251 155.219 19.6482C155.376 19.2713 155.64 18.9492 155.979 18.7226C156.318 18.496 156.717 18.375 157.125 18.375C157.672 18.375 158.197 18.5923 158.583 18.9791C158.97 19.3659 159.188 19.8905 159.188 20.4375Z" fill="#E9E9E9"/>
<circle cx="28" cy="28" r="28" fill="#4E4E4E"/>
<path d="M28 10C24.4399 10 20.9598 11.0557 17.9997 13.0335C15.0397 15.0114 12.7326 17.8226 11.3702 21.1117C10.0078 24.4008 9.65134 28.02 10.3459 31.5116C11.0404 35.0033 12.7547 38.2106 15.2721 40.7279C17.7894 43.2453 20.9967 44.9596 24.4884 45.6541C27.98 46.3487 31.5992 45.9922 34.8883 44.6298C38.1774 43.2674 40.9886 40.9603 42.9665 38.0003C44.9443 35.0402 46 31.5601 46 28C45.995 23.2276 44.0969 18.6522 40.7224 15.2776C37.3478 11.9031 32.7724 10.005 28 10ZM29.3846 43.1667V32.1538H33.5385C33.9057 32.1538 34.2579 32.008 34.5175 31.7483C34.7772 31.4886 34.9231 31.1364 34.9231 30.7692C34.9231 30.402 34.7772 30.0498 34.5175 29.7902C34.2579 29.5305 33.9057 29.3846 33.5385 29.3846H29.3846V25.2308C29.3846 24.4963 29.6764 23.792 30.1957 23.2726C30.715 22.7533 31.4194 22.4615 32.1538 22.4615H34.9231C35.2903 22.4615 35.6425 22.3157 35.9022 22.056C36.1618 21.7963 36.3077 21.4441 36.3077 21.0769C36.3077 20.7097 36.1618 20.3575 35.9022 20.0979C35.6425 19.8382 35.2903 19.6923 34.9231 19.6923H32.1538C30.685 19.6923 29.2762 20.2758 28.2376 21.3145C27.1989 22.3531 26.6154 23.7619 26.6154 25.2308V29.3846H22.4615C22.0943 29.3846 21.7421 29.5305 21.4825 29.7902C21.2228 30.0498 21.0769 30.402 21.0769 30.7692C21.0769 31.1364 21.2228 31.4886 21.4825 31.7483C21.7421 32.008 22.0943 32.1538 22.4615 32.1538H26.6154V43.1667C22.7121 42.8104 19.0965 40.9631 16.5206 38.009C13.9446 35.0549 12.6067 31.2214 12.785 27.306C12.9634 23.3906 14.6443 19.6946 17.4781 16.987C20.3119 14.2793 24.0805 12.7683 28 12.7683C31.9195 12.7683 35.6881 14.2793 38.5219 16.987C41.3557 19.6946 43.0367 23.3906 43.215 27.306C43.3933 31.2214 42.0554 35.0549 39.4794 38.009C36.9035 40.9631 33.2879 42.8104 29.3846 43.1667Z" fill="#E9E9E9"/>
</svg>
