<svg width="44" height="200" viewBox="0 0 44 200" fill="none" xmlns="http://www.w3.org/2000/svg">
<path d="M22 66.0938C20.4363 66.0938 18.9077 66.5574 17.6075 67.4262C16.3073 68.2949 15.294 69.5297 14.6956 70.9744C14.0972 72.4191 13.9406 74.0088 14.2457 75.5424C14.5507 77.0761 15.3037 78.4849 16.4094 79.5906C17.5151 80.6963 18.9239 81.4493 20.4576 81.7543C21.9912 82.0594 23.5809 81.9028 25.0256 81.3044C26.4703 80.706 27.7051 79.6927 28.5738 78.3925C29.4426 77.0923 29.9062 75.5637 29.9062 74C29.9035 71.904 29.0697 69.8946 27.5876 68.4125C26.1054 66.9303 24.096 66.0965 22 66.0938ZM22 79.8438C20.8442 79.8438 19.7144 79.501 18.7534 78.8589C17.7924 78.2168 17.0434 77.3041 16.6011 76.2363C16.1588 75.1685 16.0431 73.9935 16.2685 72.8599C16.494 71.7264 17.0506 70.6851 17.8678 69.8678C18.6851 69.0506 19.7264 68.494 20.8599 68.2685C21.9935 68.0431 23.1685 68.1588 24.2363 68.6011C25.3041 69.0434 26.2168 69.7924 26.8589 70.7534C27.501 71.7144 27.8438 72.8442 27.8438 74C27.8438 75.5499 27.2281 77.0362 26.1322 78.1322C25.0362 79.2281 23.5499 79.8438 22 79.8438ZM30.25 56.4688H13.75C11.2893 56.4715 8.93016 57.4502 7.19018 59.1902C5.4502 60.9302 4.47148 63.2893 4.46875 65.75V82.25C4.47148 84.7107 5.4502 87.0698 7.19018 88.8098C8.93016 90.5498 11.2893 91.5285 13.75 91.5312H30.25C32.7107 91.5285 35.0698 90.5498 36.8098 88.8098C38.5498 87.0698 39.5285 84.7107 39.5312 82.25V65.75C39.5285 63.2893 38.5498 60.9302 36.8098 59.1902C35.0698 57.4502 32.7107 56.4715 30.25 56.4688ZM37.4688 82.25C37.4687 84.1645 36.7082 86.0006 35.3544 87.3544C34.0006 88.7082 32.1645 89.4688 30.25 89.4688H13.75C11.8355 89.4688 9.99935 88.7082 8.64557 87.3544C7.29179 86.0006 6.53125 84.1645 6.53125 82.25V65.75C6.53125 63.8355 7.29179 61.9994 8.64557 60.6456C9.99935 59.2918 11.8355 58.5312 13.75 58.5312H30.25C32.1645 58.5312 34.0006 59.2918 35.3544 60.6456C36.7082 61.9994 37.4688 63.8355 37.4688 65.75V82.25ZM32.6562 65.0625C32.6562 65.4024 32.5554 65.7347 32.3666 66.0174C32.1777 66.3 31.9093 66.5203 31.5952 66.6504C31.2812 66.7805 30.9356 66.8145 30.6022 66.7482C30.2688 66.6819 29.9625 66.5182 29.7222 66.2778C29.4818 66.0375 29.3181 65.7312 29.2518 65.3978C29.1855 65.0644 29.2195 64.7188 29.3496 64.4048C29.4797 64.0907 29.7 63.8223 29.9826 63.6334C30.2653 63.4446 30.5976 63.3438 30.9375 63.3438C31.3933 63.3438 31.8305 63.5248 32.1528 63.8472C32.4752 64.1695 32.6562 64.6067 32.6562 65.0625Z" fill="#13C4A9"/>
<path d="M10.7362 168.54C10.5267 168.427 10.2915 168.37 10.0536 168.376C9.81573 168.381 9.58324 168.448 9.37889 168.569C9.17455 168.691 9.00535 168.864 8.88784 169.071C8.77033 169.278 8.70854 169.512 8.7085 169.75V187.167C8.7085 187.531 8.85336 187.881 9.11122 188.139C9.36909 188.397 9.71882 188.542 10.0835 188.542C10.4482 188.542 10.7979 188.397 11.0558 188.139C11.3136 187.881 11.4585 187.531 11.4585 187.167V172.053L21.3475 177.377C21.7545 177.597 22.2458 177.597 22.6528 177.377L32.5418 172.053V187.167C32.5418 187.531 32.6867 187.881 32.9446 188.139C33.2024 188.397 33.5522 188.542 33.9168 188.542C34.2815 188.542 34.6312 188.397 34.8891 188.139C35.147 187.881 35.2918 187.531 35.2918 187.167V169.75C35.2918 169.512 35.23 169.278 35.1125 169.071C34.995 168.864 34.8258 168.691 34.6214 168.569C34.4171 168.448 34.1846 168.381 33.9467 168.376C33.7088 168.37 33.4736 168.427 33.2642 168.54L22.0002 174.605L10.7362 168.54Z" fill="#13C4A9"/>
<path fill-rule="evenodd" clip-rule="evenodd" d="M31.7348 162.824C25.2577 162.245 18.7419 162.245 12.2648 162.824L9.48177 163.071C8.03213 163.201 6.66844 163.815 5.61094 164.815C4.55344 165.815 3.86387 167.142 3.6536 168.582C2.74047 174.828 2.74047 181.173 3.6536 187.418C3.86433 188.858 4.55433 190.185 5.61217 191.185C6.67 192.184 8.0339 192.798 9.4836 192.927L12.2629 193.176C18.7419 193.756 25.2576 193.756 31.7366 193.176L34.5178 192.927C35.9671 192.798 37.3306 192.184 38.3881 191.184C39.4455 190.184 40.1353 188.858 40.3459 187.418C41.2591 181.173 41.2591 174.828 40.3459 168.582C40.1356 167.142 39.4457 165.814 38.3879 164.814C37.33 163.814 35.9659 163.2 34.5159 163.071L31.7366 162.824H31.7348ZM12.5104 165.563C18.8253 164.998 25.1779 164.998 31.4928 165.563L34.2739 165.812C35.1077 165.886 35.8921 166.239 36.5005 166.814C37.109 167.389 37.5059 168.152 37.6271 168.98C38.5017 174.962 38.5017 181.039 37.6271 187.02C37.5059 187.848 37.109 188.611 36.5005 189.186C35.8921 189.761 35.1077 190.114 34.2739 190.188L31.4928 190.437C25.1788 191.002 18.8244 191.002 12.5104 190.437L9.72927 190.188C8.89552 190.114 8.11108 189.761 7.50266 189.186C6.89423 188.611 6.49734 187.848 6.3761 187.02C5.50154 181.038 5.50154 174.962 6.3761 168.98C6.49734 168.152 6.89423 167.389 7.50266 166.814C8.11108 166.239 8.89552 165.886 9.72927 165.812L12.5104 165.563Z" fill="#13C4A9"/>
<path d="M37.125 108.125H6.875C6.14565 108.125 5.44618 108.415 4.93046 108.93C4.41473 109.446 4.125 110.146 4.125 110.875V141.125C4.125 141.854 4.41473 142.554 4.93046 143.07C5.44618 143.585 6.14565 143.875 6.875 143.875H37.125C37.8543 143.875 38.5538 143.585 39.0695 143.07C39.5853 142.554 39.875 141.854 39.875 141.125V110.875C39.875 110.146 39.5853 109.446 39.0695 108.93C38.5538 108.415 37.8543 108.125 37.125 108.125ZM37.125 141.125H6.875V110.875H37.125V141.125ZM16.5 123.25V134.25C16.5 134.615 16.3551 134.964 16.0973 135.222C15.8394 135.48 15.4897 135.625 15.125 135.625C14.7603 135.625 14.4106 135.48 14.1527 135.222C13.8949 134.964 13.75 134.615 13.75 134.25V123.25C13.75 122.885 13.8949 122.536 14.1527 122.278C14.4106 122.02 14.7603 121.875 15.125 121.875C15.4897 121.875 15.8394 122.02 16.0973 122.278C16.3551 122.536 16.5 122.885 16.5 123.25ZM31.625 128.062V134.25C31.625 134.615 31.4801 134.964 31.2223 135.222C30.9644 135.48 30.6147 135.625 30.25 135.625C29.8853 135.625 29.5356 135.48 29.2777 135.222C29.0199 134.964 28.875 134.615 28.875 134.25V128.062C28.875 127.151 28.5128 126.276 27.8682 125.632C27.2235 124.987 26.3492 124.625 25.4375 124.625C24.5258 124.625 23.6515 124.987 23.0068 125.632C22.3622 126.276 22 127.151 22 128.062V134.25C22 134.615 21.8551 134.964 21.5973 135.222C21.3394 135.48 20.9897 135.625 20.625 135.625C20.2603 135.625 19.9106 135.48 19.6527 135.222C19.3949 134.964 19.25 134.615 19.25 134.25V123.25C19.2517 122.913 19.377 122.589 19.602 122.338C19.8271 122.088 20.1363 121.928 20.471 121.891C20.8056 121.853 21.1425 121.939 21.4177 122.133C21.6929 122.328 21.8873 122.616 21.9639 122.944C22.8941 122.313 23.9785 121.947 25.1009 121.886C26.2232 121.825 27.341 122.071 28.3342 122.597C29.3274 123.123 30.1585 123.91 30.7383 124.873C31.3181 125.836 31.6246 126.939 31.625 128.062ZM17.1875 118.438C17.1875 118.845 17.0665 119.244 16.8399 119.583C16.6133 119.923 16.2912 120.187 15.9143 120.343C15.5374 120.499 15.1227 120.54 14.7226 120.46C14.3225 120.381 13.955 120.184 13.6666 119.896C13.3781 119.607 13.1817 119.24 13.1021 118.84C13.0225 118.44 13.0634 118.025 13.2195 117.648C13.3756 117.271 13.64 116.949 13.9791 116.723C14.3183 116.496 14.7171 116.375 15.125 116.375C15.672 116.375 16.1966 116.592 16.5834 116.979C16.9702 117.366 17.1875 117.89 17.1875 118.438Z" fill="#13C4A9"/>
<path d="M22 4C18.4399 4 14.9598 5.05568 11.9997 7.03355C9.03966 9.01141 6.73255 11.8226 5.37018 15.1117C4.0078 18.4008 3.65134 22.02 4.34587 25.5116C5.04041 29.0033 6.75474 32.2106 9.27208 34.7279C11.7894 37.2453 14.9967 38.9596 18.4884 39.6541C21.98 40.3487 25.5992 39.9922 28.8883 38.6298C32.1774 37.2674 34.9886 34.9603 36.9665 32.0003C38.9443 29.0402 40 25.5601 40 22C39.995 17.2276 38.0969 12.6522 34.7224 9.27764C31.3478 5.90308 26.7724 4.00504 22 4ZM23.3846 37.1667V26.1538H27.5385C27.9057 26.1538 28.2579 26.008 28.5175 25.7483C28.7772 25.4886 28.9231 25.1364 28.9231 24.7692C28.9231 24.402 28.7772 24.0498 28.5175 23.7902C28.2579 23.5305 27.9057 23.3846 27.5385 23.3846H23.3846V19.2308C23.3846 18.4963 23.6764 17.792 24.1957 17.2726C24.715 16.7533 25.4194 16.4615 26.1538 16.4615H28.9231C29.2903 16.4615 29.6425 16.3157 29.9022 16.056C30.1618 15.7963 30.3077 15.4441 30.3077 15.0769C30.3077 14.7097 30.1618 14.3575 29.9022 14.0979C29.6425 13.8382 29.2903 13.6923 28.9231 13.6923H26.1538C24.685 13.6923 23.2762 14.2758 22.2376 15.3145C21.1989 16.3531 20.6154 17.7619 20.6154 19.2308V23.3846H16.4615C16.0943 23.3846 15.7421 23.5305 15.4825 23.7902C15.2228 24.0498 15.0769 24.402 15.0769 24.7692C15.0769 25.1364 15.2228 25.4886 15.4825 25.7483C15.7421 26.008 16.0943 26.1538 16.4615 26.1538H20.6154V37.1667C16.7121 36.8104 13.0965 34.9631 10.5206 32.009C7.94463 29.0549 6.60667 25.2214 6.78501 21.306C6.96336 17.3906 8.64426 13.6946 11.4781 10.987C14.3119 8.27926 18.0805 6.76826 22 6.76826C25.9195 6.76826 29.6881 8.27926 32.5219 10.987C35.3557 13.6946 37.0367 17.3906 37.215 21.306C37.3933 25.2214 36.0554 29.0549 33.4794 32.009C30.9035 34.9631 27.2879 36.8104 23.3846 37.1667Z" fill="#13C4A9"/>
</svg>
